<svg width="87" height="87" viewBox="0 0 87 87" fill="none" xmlns="http://www.w3.org/2000/svg">
<path d="M43.5 76.125C61.5183 76.125 76.125 61.5183 76.125 43.5C76.125 25.4817 61.5183 10.875 43.5 10.875C25.4817 10.875 10.875 25.4817 10.875 43.5C10.875 61.5183 25.4817 76.125 43.5 76.125Z" stroke="white" stroke-width="5"/>
<path d="M29 36.25C29 36.25 30.8125 29 34.4375 29C38.0625 29 39.875 36.25 39.875 36.25M47.125 36.25C47.125 36.25 48.9375 29 52.5625 29C56.1875 29 58 36.25 58 36.25" stroke="white" stroke-width="5" stroke-linecap="round"/>
<path d="M32.625 54.375C32.625 54.375 36.25 47.125 43.5 47.125C50.75 47.125 54.375 54.375 54.375 54.375" stroke="white" stroke-width="5" stroke-linecap="round"/>
</svg>
