<svg width="75" height="74" viewBox="0 0 75 74" fill="none" xmlns="http://www.w3.org/2000/svg">
<path d="M28.4117 56.1667H46.5844M37.5 2.5V6.33333M62.2489 12.6047L59.4994 15.3148M72.5 37H68.6111M6.38889 37H2.5M15.5006 15.3148L12.7511 12.6047M23.7489 50.5547C21.03 47.874 19.1787 44.4588 18.4288 40.7409C17.6789 37.0231 18.0643 33.1696 19.5362 29.6676C21.008 26.1657 23.5003 23.1726 26.6978 21.0667C29.8953 18.9609 33.6545 17.8369 37.5 17.8369C41.3455 17.8369 45.1047 18.9609 48.3022 21.0667C51.4997 23.1726 53.992 26.1657 55.4638 29.6676C56.9357 33.1696 57.321 37.0231 56.5712 40.7409C55.8213 44.4588 53.97 47.874 51.2511 50.5547L49.12 52.6515C47.9016 53.8527 46.9352 55.2786 46.276 56.848C45.6167 58.4173 45.2776 60.0993 45.2778 61.7978V63.8333C45.2778 65.8667 44.4583 67.8167 42.9997 69.2545C41.5411 70.6923 39.5628 71.5 37.5 71.5C35.4372 71.5 33.4589 70.6923 32.0003 69.2545C30.5417 67.8167 29.7222 65.8667 29.7222 63.8333V61.7978C29.7222 58.367 28.3378 55.0742 25.88 52.6515L23.7489 50.5547Z" stroke="white" stroke-width="5" stroke-linecap="round" stroke-linejoin="round"/>
</svg>
