<svg width="96" height="96" viewBox="0 0 96 96" fill="none" xmlns="http://www.w3.org/2000/svg">
<path d="M48 24V16M48 24C45.8783 24 43.8434 24.8429 42.3432 26.3431C40.8429 27.8434 40 29.8783 40 32C40 34.1217 40.8429 36.1566 42.3432 37.6569C43.8434 39.1571 45.8783 40 48 40M48 24C50.1217 24 52.1566 24.8429 53.6569 26.3431C55.1571 27.8434 56 29.8783 56 32C56 34.1217 55.1571 36.1566 53.6569 37.6569C52.1566 39.1571 50.1217 40 48 40M48 40V80M24 72C26.1217 72 28.1566 71.1572 29.6569 69.6569C31.1571 68.1566 32 66.1217 32 64C32 61.8783 31.1571 59.8434 29.6569 58.3432C28.1566 56.8429 26.1217 56 24 56M24 72C21.8783 72 19.8434 71.1572 18.3431 69.6569C16.8429 68.1566 16 66.1217 16 64C16 61.8783 16.8429 59.8434 18.3431 58.3432C19.8434 56.8429 21.8783 56 24 56M24 72V80M24 56V16M72 72C74.1217 72 76.1566 71.1572 77.6569 69.6569C79.1572 68.1566 80 66.1217 80 64C80 61.8783 79.1572 59.8434 77.6569 58.3432C76.1566 56.8429 74.1217 56 72 56M72 72C69.8783 72 67.8434 71.1572 66.3432 69.6569C64.8429 68.1566 64 66.1217 64 64C64 61.8783 64.8429 59.8434 66.3432 58.3432C67.8434 56.8429 69.8783 56 72 56M72 72V80M72 56V16" stroke="white" stroke-width="5" stroke-linecap="round" stroke-linejoin="round"/>
</svg>
