<svg width="77" height="83" viewBox="0 0 77 83" fill="none" xmlns="http://www.w3.org/2000/svg">
<path d="M25.6667 38.0415C30.9825 38.0415 35.2917 33.3965 35.2917 27.6665C35.2917 21.9365 30.9825 17.2915 25.6667 17.2915C20.351 17.2915 16.0417 21.9365 16.0417 27.6665C16.0417 33.3965 20.351 38.0415 25.6667 38.0415Z" stroke="white" stroke-width="5"/>
<path d="M51.3333 65.7085C56.649 65.7085 60.9583 61.0634 60.9583 55.3335C60.9583 49.6035 56.649 44.9585 51.3333 44.9585C46.0175 44.9585 41.7083 49.6035 41.7083 55.3335C41.7083 61.0634 46.0175 65.7085 51.3333 65.7085Z" stroke="white" stroke-width="5"/>
<path d="M32.0833 34.5835L44.9166 48.4168M44.9166 34.5835L32.0833 48.4168" stroke="white" stroke-width="5" stroke-linecap="round"/>
</svg>
