<?xml version="1.0" encoding="UTF-8"?>
<svg version="1.1" xmlns="http://www.w3.org/2000/svg" width="60" height="74">
<path d="M0 0 C19.8 0 39.6 0 60 0 C60 24.42 60 48.84 60 74 C40.2 74 20.4 74 0 74 C0 49.58 0 25.16 0 0 Z " fill="#F9F9F9" transform="translate(0,0)"/>
<path d="M0 0 C2.125 0.9375 2.125 0.9375 4 2 C3.48851193 9.07899488 0.77590419 15.22411971 -1.875 21.75 C-2.32230469 22.88566406 -2.76960938 24.02132812 -3.23046875 25.19140625 C-3.66746094 26.27808594 -4.10445312 27.36476563 -4.5546875 28.484375 C-4.95155762 29.47147461 -5.34842773 30.45857422 -5.75732422 31.47558594 C-6.94168751 33.88154201 -7.87879112 35.37646204 -10 37 C-12.1875 36.6875 -12.1875 36.6875 -14 36 C-15.33855476 31.55943013 -14.59548198 29.16193574 -12.76171875 24.96484375 C-12.27123047 23.82595703 -11.78074219 22.68707031 -11.27539062 21.51367188 C-10.75138672 20.33353516 -10.22738281 19.15339844 -9.6875 17.9375 C-8.91889648 16.16149414 -8.91889648 16.16149414 -8.13476562 14.34960938 C-6.77627276 11.22348172 -5.40810463 8.10408722 -4 5 C-3.65686768 4.23888916 -3.31373535 3.47777832 -2.96020508 2.69360352 C-2 1 -2 1 0 0 Z " fill="#080808" transform="translate(31,17)"/>
<path d="M0 0 C1.67542976 0.28604898 3.34385343 0.61781233 5 1 C6.37954944 4.08416513 5.88960307 5.34032962 4.8203125 8.63671875 C4.26665839 9.99171434 3.70113334 11.34190857 3.125 12.6875 C2.84269531 13.37650391 2.56039062 14.06550781 2.26953125 14.77539062 C0.17366071 19.82633929 0.17366071 19.82633929 -1 21 C-3.5 21.125 -3.5 21.125 -6 21 C-6.33 20.67 -6.66 20.34 -7 20 C-6.72216147 13.74863303 -4.50214237 4.50214237 0 0 Z " fill="#040505" transform="translate(36,33)"/>
<path d="M0 0 C3.96 0 7.92 0 12 0 C12 0.99 12 1.98 12 3 C7.71 3 3.42 3 -1 3 C-0.67 2.01 -0.34 1.02 0 0 Z " fill="#B2CCFC" transform="translate(7,39)"/>
<path d="M0 0 C0.66 0 1.32 0 2 0 C2.02698189 1.62490954 2.04638757 3.24994633 2.0625 4.875 C2.07410156 5.77992187 2.08570313 6.68484375 2.09765625 7.6171875 C2 10 2 10 1 12 C0.34 12 -0.32 12 -1 12 C-1.02698189 10.37509046 -1.04638757 8.75005367 -1.0625 7.125 C-1.07410156 6.22007813 -1.08570312 5.31515625 -1.09765625 4.3828125 C-1 2 -1 2 0 0 Z " fill="#B3CDF3" transform="translate(29,36)"/>
<path d="M0 0 C3.3 0 6.6 0 10 0 C10 0.99 10 1.98 10 3 C6.37 3 2.74 3 -1 3 C-0.67 2.01 -0.34 1.02 0 0 Z " fill="#ACC9FC" transform="translate(41,40)"/>
</svg>
